<?xml version="1.0" encoding="UTF-8"?>
<svg width="585px" height="440px" viewBox="0 0 585 440" version="1.1" xmlns="http://www.w3.org/2000/svg" xmlns:xlink="http://www.w3.org/1999/xlink">
    <!-- Generator: Sketch 63.1 (92452) - https://sketch.com -->
    <title>gosuslugi_moi_docs_</title>
    <desc>Created with Sketch.</desc>
    <g id="gosuslugi_moi_docs_" stroke="none" stroke-width="1" fill="none" fill-rule="evenodd">
        <path d="M460.545,276.913 L460.545,225.707 L477.728,225.707 L477.728,249.551 C477.728,251.294 477.356,253.279 477.356,253.279 L478.1,253.279 L496.797,225.712 L513.234,225.712 L513.234,276.913 L496.057,276.913 L496.057,252.856 C496.057,251.138 496.43,249.504 496.43,249.504 L495.686,249.504 L476.985,276.913 L460.545,276.913" id="Fill-1" fill="#562212"></path>
        <path d="M424.912,224.347 C441.25,224.347 453.436,235.904 453.436,251.384 C453.436,266.719 441.25,278.282 424.912,278.282 C408.734,278.282 396.548,266.719 396.548,251.384 C396.548,235.904 408.734,224.347 424.912,224.347 Z M424.916,262.331 C431.158,262.331 435.317,257.475 435.317,251.384 C435.317,245.153 431.158,240.294 424.916,240.294 C418.831,240.294 414.516,245.153 414.516,251.384 C414.516,257.475 418.831,262.331 424.916,262.331 L424.916,262.331 Z" id="Fill-2" fill="#562212"></path>
        <path d="M84.444,285.777 C100.5,285.777 111.843,297.325 111.843,312.894 C111.843,328.26 100.5,339.713 84.444,339.713 C68.576,339.713 57.122,328.26 57.122,312.894 C57.122,297.325 68.576,285.777 84.444,285.777 Z M84.444,330.313 C94.772,330.313 101.815,322.782 101.815,312.894 C101.815,302.809 94.772,295.178 84.444,295.178 C74.3,295.178 67.246,302.809 67.246,312.894 C67.246,322.782 74.3,330.313 84.444,330.313 L84.444,330.313 Z" id="Fill-3" fill="#562212"></path>
        <path d="M339.62,316.088 C339.72,315.041 339.788,313.983 339.788,312.899 C339.788,297.33 331.729,285.777 314.875,285.777 C300.458,285.777 290.043,297.33 290.043,312.899 C290.043,313.983 290.111,315.041 290.215,316.088 L290.199,316.088 C291.362,329.448 299.909,339.728 317.809,339.728 C326.44,339.728 333.802,337.078 339.102,332.767 L335.069,325.404 C331.142,328.348 325.161,331.097 318.101,331.097 C306.922,331.097 301.522,325.017 300.536,316.088 L339.62,316.088 Z M315.379,294.286 C324.59,294.286 329.413,300.284 330.225,308.138 L300.694,308.138 C302.165,300.021 307.775,294.286 315.379,294.286 L315.379,294.286 Z" id="Fill-4" fill="#562212"></path>
        <polyline id="Fill-5" fill="#562212" points="384.431 287.153 384.431 308.138 357.021 308.138 357.021 287.153 346.825 287.153 346.825 338.361 357.021 338.361 357.021 316.073 384.431 316.073 384.431 338.361 394.627 338.361 394.627 287.153 384.431 287.153"></polyline>
        <polyline id="Fill-6" fill="#562212" points="448.318 287.153 401.668 287.153 401.668 296.234 419.893 296.234 419.893 338.361 430.094 338.361 430.094 296.234 448.318 296.234 448.318 287.153"></polyline>
        <polygon id="Fill-7" fill="#562212" points="503.046 338.358 513.237 338.358 513.237 287.15 503.046 287.15"></polygon>
        <path d="M141.245,311.419 L141.245,310.975 C141.245,310.975 142.177,310.66 143.041,309.686 C143.89,308.723 162.559,287.152 162.559,287.152 L151.127,287.152 L133.144,308.137 L129.08,308.137 L129.08,287.152 L118.888,287.152 L118.888,338.358 L129.08,338.358 L129.08,316.07 L133.704,316.07 L153.107,338.358 L165.801,338.353 C165.801,338.353 144.048,313.818 143.105,312.755 C142.214,311.739 141.245,311.419 141.245,311.419" id="Fill-8" fill="#562212"></path>
        <path d="M473.431,302.806 C468.666,302.806 465.555,303.413 465.555,303.413 L465.555,287.152 L455.365,287.152 L455.365,338.376 C455.365,338.376 463.743,339.186 472.415,339.186 C488.42,339.186 493.688,329.426 493.688,320.444 C493.688,311.337 488.979,302.806 473.431,302.806 Z M471.614,330.656 C468.446,330.656 465.555,330.404 465.555,330.404 L465.555,311.938 C465.555,311.938 467.791,311.337 471.719,311.337 C480.265,311.337 484.015,314.636 484.015,320.779 C484.015,326.812 480.632,330.656 471.614,330.656 L471.614,330.656 Z" id="Fill-9" fill="#562212"></path>
        <path d="M40.31,287.153 L40.037,293.611 L39.384,293.611 C36.136,288.792 29.642,285.776 24.552,285.776 C9.617,285.776 0.735,297.33 0.373,312.899 C0.027,328.259 9.014,339.712 23.945,339.712 C30.789,339.712 35.058,337.768 39.231,332.819 L39.891,332.819 L39.891,337.402 C39.891,347.311 33.015,351.239 25.265,351.239 C18.132,351.239 12.586,348.546 9.182,346.503 L5.85,354.962 C9.087,356.628 15.163,360.256 25.265,360.256 C39.587,360.256 50.083,351.726 50.083,335.339 L50.083,287.153 L40.31,287.153 Z M25.756,330.316 C15.476,330.316 10.035,322.781 10.261,312.899 C10.491,302.812 16.278,295.177 26.563,295.177 C32.23,295.177 39.891,300.367 39.891,309.752 L39.891,323.88 C36.701,327.839 31.747,330.316 25.756,330.316 L25.756,330.316 Z" id="Fill-10" fill="#562212"></path>
        <path d="M206.211,287.153 L206.211,324.269 C203.221,328.002 198.638,330.316 192.841,330.316 C183.483,330.316 179.194,322.781 179.425,312.899 L179.425,287.138 L169.536,287.138 L169.536,312.899 C169.186,328.259 175.335,339.712 190.264,339.712 C197.099,339.712 201.744,337.685 205.556,332.819 L206.211,332.819 L206.211,337.402 C206.211,347.311 199.341,351.239 191.584,351.239 C184.451,351.239 178.9,348.546 175.501,346.503 L172.176,354.962 C175.408,356.628 181.482,360.256 191.584,360.256 C205.912,360.256 216.402,351.726 216.402,335.339 L216.402,287.153 L206.211,287.153" id="Fill-11" fill="#562212"></path>
        <path d="M273.347,287.153 C273.347,287.153 256.489,310.856 255.996,311.552 C255.509,312.259 255.347,312.93 255.347,312.93 L254.975,312.93 C254.975,312.93 254.761,312.259 254.231,311.552 C253.686,310.85 235.587,287.153 235.587,287.153 L225.972,287.153 L225.972,338.361 L236.165,338.361 L236.165,305.703 C236.165,303.431 235.687,302.142 235.687,302.142 L236.165,302.142 L254.917,327.341 L255.352,327.341 L272.75,302.142 L273.226,302.142 C273.226,302.142 272.75,303.487 272.75,305.677 L272.75,338.361 L282.941,338.361 L282.941,287.153 L273.347,287.153" id="Fill-12" fill="#562212"></path>
        <path d="M482.52,124.073 L482.52,72.117 L441.562,72.117 L441.562,124.047 C441.562,142.344 451.319,159.244 467.171,168.388 L513.236,194.992 L513.236,147.718 L487.642,132.939 C484.474,131.111 482.52,127.728 482.52,124.073" id="Fill-14" fill="#C59368"></path>
        <path d="M513.236,174.51 L559.316,147.913 C575.157,138.764 584.913,121.858 584.913,103.565 L584.913,0.439 L513.236,0.439 L513.236,41.397 L543.96,41.397 L543.96,103.592 C543.96,107.252 542.013,110.63 538.839,112.459 L513.236,127.237 L513.236,174.51" id="Fill-15" fill="#ED5338"></path>
        <polyline id="Fill-16" fill="#562212" points="513.236 0.439 441.562 72.117 513.236 72.117 513.236 0.439"></polyline>
        <text id="однофункциональный-ц" font-family="PTSans-Narrow, PT Sans Narrow" font-size="45" font-style="condensed" font-weight="normal" line-spacing="42" fill="#ED5338">
            <tspan x="59" y="389">однофункциональный центр</tspan>
            <tspan x="149.675" y="431">государственных услуг</tspan>
        </text>
        <path d="M486.92,220.85 C492.74,220.85 497.045,219.635 499.835,217.205 C502.625,214.775 504.02,211.04 504.02,206 L504.02,206 L492.77,206 C492.77,208.04 492.275,209.6 491.285,210.68 C490.295,211.76 488.81,212.3 486.83,212.3 C484.85,212.3 483.41,211.775 482.51,210.725 C481.61,209.675 481.13,208.1 481.07,206 L481.07,206 L470,206 C470.06,211.04 471.455,214.775 474.185,217.205 C476.915,219.635 481.16,220.85 486.92,220.85 Z" id="й" fill="#562212" fill-rule="nonzero"></path>
    </g>
</svg>